<svg xmlns="http://www.w3.org/2000/svg" width="26" height="26"><g data-name="Group 31"><g data-name="Group 30"><path data-name="Path 51" d="M25.997 13V8.667h-2.164V2.6a.433.433 0 00-.156-.333L21.077.1a.433.433 0 00-.555 0l-2.6 2.167a.433.433 0 00-.156.333v6.067h-1.733V2.6a.433.433 0 00-.156-.333L13.277.1a.433.433 0 00-.555 0l-2.6 2.167a.433.433 0 00-.155.333v6.067H8.233V2.6a.433.433 0 00-.156-.333L5.477.1a.433.433 0 00-.555 0l-2.6 2.167a.433.433 0 00-.155.333v6.067h-2.17V13h2.17v4.333h-2.17v4.333h2.17v3.9a.433.433 0 00.43.434h5.2a.433.433 0 00.433-.433v-3.9h1.737v3.9a.433.433 0 00.43.433h5.2a.433.433 0 00.433-.433v-3.9h1.737v3.9a.433.433 0 00.43.433h5.2a.433.433 0 00.433-.433v-3.9h2.167v-4.334h-2.164V13zm-2.164-3.467h1.3v2.6h-1.3zM2.167 20.8h-1.3v-2.6h1.3zm0-8.667h-1.3v-2.6h1.3zm5.2 13H3.033V2.8L5.197 1l2.17 1.8zm2.6-4.333H8.233v-2.6h1.734zm0-3.467H8.233V13h1.734zm0-5.2H8.233v-2.6h1.734zm5.2 13h-4.334V2.8L12.997 1l2.17 1.8zm2.6-4.333h-1.734v-2.6h1.734zm0-3.467h-1.734V13h1.734zm0-5.2h-1.734v-2.6h1.734zm5.2 13h-4.334V2.8L20.797 1l2.17 1.8zm2.166-6.933v2.6h-1.3v-2.6z" fill="#ff7f00"/></g></g><g data-name="Group 33"><g data-name="Group 32"><path data-name="Path 52" d="M5.197 9.533a1.3 1.3 0 101.3 1.3 1.3 1.3 0 00-1.3-1.3zm0 1.733a.433.433 0 11.433-.433.433.433 0 01-.433.433z" fill="#ff7f00"/></g></g><g data-name="Group 35"><g data-name="Group 34"><path data-name="Path 53" d="M5.197 18.2a1.3 1.3 0 101.3 1.3 1.3 1.3 0 00-1.3-1.3zm0 1.733a.433.433 0 11.433-.433.433.433 0 01-.433.433z" fill="#ff7f00"/></g></g><g data-name="Group 37"><g data-name="Group 36"><path data-name="Path 54" d="M12.997 9.533a1.3 1.3 0 101.3 1.3 1.3 1.3 0 00-1.3-1.3zm0 1.733a.433.433 0 11.433-.433.433.433 0 01-.433.433z" fill="#ff7f00"/></g></g><g data-name="Group 39"><g data-name="Group 38"><path data-name="Path 55" d="M12.997 18.2a1.3 1.3 0 101.3 1.3 1.3 1.3 0 00-1.3-1.3zm0 1.733a.433.433 0 11.433-.433.433.433 0 01-.433.433z" fill="#ff7f00"/></g></g><g data-name="Group 41"><g data-name="Group 40"><path data-name="Path 56" d="M20.797 9.533a1.3 1.3 0 101.3 1.3 1.3 1.3 0 00-1.3-1.3zm0 1.733a.433.433 0 11.433-.433.433.433 0 01-.433.433z" fill="#ff7f00"/></g></g><g data-name="Group 43"><g data-name="Group 42"><path data-name="Path 57" d="M20.797 18.2a1.3 1.3 0 101.3 1.3 1.3 1.3 0 00-1.3-1.3zm0 1.733a.433.433 0 11.433-.433.433.433 0 01-.433.433z" fill="#ff7f00"/></g></g></svg>