<svg xmlns="http://www.w3.org/2000/svg" width="26" height="31.2"><g data-name="Group 28"><g data-name="Group 27" fill="#ff7f00"><path data-name="Path 38" d="M13 27.04a9.36 9.36 0 10-8.542-5.523A9.36 9.36 0 0013 27.04zM5.41 14.268a8.32 8.32 0 114.177 11 8.32 8.32 0 01-4.177-11z"/><path data-name="Path 39" d="M24.44 0H1.56A1.56 1.56 0 000 1.56v28.08a1.56 1.56 0 001.56 1.56h22.88A1.56 1.56 0 0026 29.64V1.56A1.56 1.56 0 0024.44 0zm.52 29.64a.52.52 0 01-.52.52H1.56a.52.52 0 01-.52-.52v-.52h23.92zm0-1.56H1.04V7.28h23.92zm0-21.84H1.04V1.56a.52.52 0 01.52-.52h22.88a.52.52 0 01.52.52z"/><path data-name="Path 41" d="M8.84 17.68A4.165 4.165 0 0113 13.52a.52.52 0 000-1.04 5.206 5.206 0 00-5.2 5.2.52.52 0 101.04 0z"/><path data-name="Path 47" d="M5.4 3.16H3.32a.52.52 0 000 1.04H5.4a.52.52 0 000-1.04z"/><path data-name="Path 49" d="M22.026 2.252a1.214 1.214 0 101.214 1.214 1.214 1.214 0 00-1.214-1.214zm0 1.821a.607.607 0 11.607-.607.607.607 0 01-.607.607z"/></g></g></svg>