<svg xmlns="http://www.w3.org/2000/svg" width="26" height="19.067"><g data-name="Group 29"><path data-name="Path 50" d="M24.7 5.2h-.867V2.167A2.169 2.169 0 0021.667 0h-6.934A2.159 2.159 0 0013 .88 2.159 2.159 0 0011.267 0H4.333a2.169 2.169 0 00-2.167 2.167V5.2H1.3A1.3 1.3 0 000 6.5v9.533a.433.433 0 00.433.433h3.034V18.2a.433.433 0 00.433.433h1.733a.433.433 0 00.433-.433v-1.733h13.867v2.167a.433.433 0 00.433.433H22.1a.433.433 0 00.433-.433v-2.167h3.033a.433.433 0 00.434-.434V6.5a1.3 1.3 0 00-1.3-1.3zM13.433 2.167a1.3 1.3 0 011.3-1.3h6.933a1.3 1.3 0 011.3 1.3V5.2a1.3 1.3 0 00-1.3 1.3v2.167h-8.233zm-10.4 0a1.3 1.3 0 011.3-1.3h6.933a1.3 1.3 0 011.3 1.3v6.5H4.333V6.5a1.3 1.3 0 00-1.3-1.3zM3.468 15.6H.867V6.5a.433.433 0 01.433-.433h1.733a.433.433 0 01.433.433v2.241c-.015.005-.028.013-.043.019l-.071.032a1.316 1.316 0 00-.14.076c-.021.013-.043.026-.063.04a1.317 1.317 0 00-.145.12l-.029.026a1.33 1.33 0 00-.144.173c-.012.017-.022.036-.033.054a1.291 1.291 0 00-.08.147l-.03.072a1.283 1.283 0 00-.049.156c-.006.024-.013.047-.017.071a1.276 1.276 0 00-.023.24V11.7a1.271 1.271 0 00.024.239c0 .024.011.047.017.071a1.362 1.362 0 00.049.156l.03.072a1.291 1.291 0 00.08.147c.011.018.021.037.033.054a1.326 1.326 0 00.144.173l.029.026a1.317 1.317 0 00.145.12c.02.014.043.027.063.04a1.359 1.359 0 00.14.076c.023.011.046.022.07.031s.027.014.043.019zm0-3.9V9.967a.433.433 0 01.433-.433h8.667v2.6H3.9a.433.433 0 01-.433-.434zM5.2 17.767h-.867v-1.3H5.2zm16.467.433H20.8v-1.733h.867zm0-2.6H4.333V13h17.334zm.433-3.467h-8.667v-2.6H22.1a.433.433 0 01.433.433V11.7a.433.433 0 01-.433.433zm.433 3.467v-2.674c.015-.005.028-.013.043-.019s.047-.02.071-.032a1.316 1.316 0 00.14-.076c.021-.013.043-.026.063-.04a1.316 1.316 0 00.145-.12l.029-.026a1.326 1.326 0 00.144-.173c.012-.017.022-.036.033-.054a1.3 1.3 0 00.08-.147l.03-.072a1.21 1.21 0 00.049-.156c.006-.024.013-.047.017-.071a1.276 1.276 0 00.023-.24V9.967a1.272 1.272 0 00-.024-.239c0-.024-.011-.047-.017-.071a1.209 1.209 0 00-.049-.156c-.01-.025-.019-.049-.03-.073a1.334 1.334 0 00-.08-.146c-.011-.018-.021-.037-.033-.054a1.327 1.327 0 00-.144-.173l-.029-.026a1.316 1.316 0 00-.145-.12c-.02-.015-.043-.027-.063-.04a1.314 1.314 0 00-.14-.076c-.023-.011-.046-.022-.071-.032l-.043-.019V6.5a.433.433 0 01.433-.433H24.7a.433.433 0 01.433.433v9.1z" fill="#ff7f00"/></g></svg>