<svg xmlns="http://www.w3.org/2000/svg" width="26" height="20.367"><g data-name="Group 26"><path data-name="Path 37" d="M24.7 0H1.3A1.3 1.3 0 000 1.3v15.167a1.3 1.3 0 001.3 1.3h5.2V19.5H4.767a.433.433 0 100 .867H22.1a.433.433 0 100-.867h-2.6v-1.733h5.2a1.3 1.3 0 001.3-1.3V1.3A1.3 1.3 0 0024.7 0zm-6.067 19.5H7.367v-1.733h11.266zm6.5-3.033a.433.433 0 01-.433.433H1.3a.433.433 0 01-.433-.433v-.433h24.266zm0-1.3H.867V2.6h24.266zm0-13.433H.867V1.3A.433.433 0 011.3.867h23.4a.433.433 0 01.433.433z" fill="#ff7f00"/></g></svg>