<svg xmlns="http://www.w3.org/2000/svg" width="26" height="26" viewBox="0 0 26 26">
  <g id="garden" transform="translate(-0.003 0)">
    <g id="Group_31" data-name="Group 31" transform="translate(0.003 0)">
      <g id="Group_30" data-name="Group 30" transform="translate(0 0)">
        <path id="Path_51" data-name="Path 51" d="M26,13V8.667H23.836V2.6a.433.433,0,0,0-.156-.333L21.08.1a.433.433,0,0,0-.555,0l-2.6,2.167a.433.433,0,0,0-.156.333V8.667H16.036V2.6a.433.433,0,0,0-.156-.333L13.28.1a.433.433,0,0,0-.555,0l-2.6,2.167A.433.433,0,0,0,9.97,2.6V8.667H8.236V2.6a.433.433,0,0,0-.156-.333L5.48.1a.433.433,0,0,0-.555,0l-2.6,2.167A.433.433,0,0,0,2.17,2.6V8.667H0V13H2.17v4.333H0v4.333H2.17v3.9A.433.433,0,0,0,2.6,26H7.8a.433.433,0,0,0,.433-.433v-3.9H9.97v3.9A.433.433,0,0,0,10.4,26h5.2a.433.433,0,0,0,.433-.433v-3.9H17.77v3.9A.433.433,0,0,0,18.2,26h5.2a.433.433,0,0,0,.433-.433v-3.9H26V17.333H23.836V13ZM23.836,9.533h1.3v2.6h-1.3ZM2.17,20.8H.87V18.2h1.3Zm0-8.667H.87v-2.6h1.3Zm5.2,13H3.036V2.8L5.2,1,7.37,2.8ZM9.97,20.8H8.236V18.2H9.97Zm0-3.467H8.236V13H9.97Zm0-5.2H8.236v-2.6H9.97Zm5.2,13H10.836V2.8L13,1,15.17,2.8Zm2.6-4.333H16.036V18.2H17.77Zm0-3.467H16.036V13H17.77Zm0-5.2H16.036v-2.6H17.77Zm5.2,13H18.636V2.8L20.8,1,22.97,2.8ZM25.136,18.2v2.6h-1.3V18.2Z" transform="translate(-0.003 0)" fill="#ff7f00"/>
      </g>
    </g>
    <g id="Group_33" data-name="Group 33" transform="translate(3.903 9.533)">
      <g id="Group_32" data-name="Group 32">
        <path id="Path_52" data-name="Path 52" d="M73.3,176.005a1.3,1.3,0,1,0,1.3,1.3A1.3,1.3,0,0,0,73.3,176.005Zm0,1.733a.433.433,0,1,1,.433-.433A.433.433,0,0,1,73.3,177.738Z" transform="translate(-72.003 -176.005)" fill="#ff7f00"/>
      </g>
    </g>
    <g id="Group_35" data-name="Group 35" transform="translate(3.903 18.2)">
      <g id="Group_34" data-name="Group 34">
        <path id="Path_53" data-name="Path 53" d="M73.3,336.005a1.3,1.3,0,1,0,1.3,1.3A1.3,1.3,0,0,0,73.3,336.005Zm0,1.733a.433.433,0,1,1,.433-.433A.433.433,0,0,1,73.3,337.738Z" transform="translate(-72.003 -336.005)" fill="#ff7f00"/>
      </g>
    </g>
    <g id="Group_37" data-name="Group 37" transform="translate(11.703 9.533)">
      <g id="Group_36" data-name="Group 36">
        <path id="Path_54" data-name="Path 54" d="M217.3,176.005a1.3,1.3,0,1,0,1.3,1.3A1.3,1.3,0,0,0,217.3,176.005Zm0,1.733a.433.433,0,1,1,.433-.433A.433.433,0,0,1,217.3,177.738Z" transform="translate(-216.003 -176.005)" fill="#ff7f00"/>
      </g>
    </g>
    <g id="Group_39" data-name="Group 39" transform="translate(11.703 18.2)">
      <g id="Group_38" data-name="Group 38">
        <path id="Path_55" data-name="Path 55" d="M217.3,336.005a1.3,1.3,0,1,0,1.3,1.3A1.3,1.3,0,0,0,217.3,336.005Zm0,1.733a.433.433,0,1,1,.433-.433A.433.433,0,0,1,217.3,337.738Z" transform="translate(-216.003 -336.005)" fill="#ff7f00"/>
      </g>
    </g>
    <g id="Group_41" data-name="Group 41" transform="translate(19.503 9.533)">
      <g id="Group_40" data-name="Group 40">
        <path id="Path_56" data-name="Path 56" d="M361.3,176.005a1.3,1.3,0,1,0,1.3,1.3A1.3,1.3,0,0,0,361.3,176.005Zm0,1.733a.433.433,0,1,1,.433-.433A.433.433,0,0,1,361.3,177.738Z" transform="translate(-360.003 -176.005)" fill="#ff7f00"/>
      </g>
    </g>
    <g id="Group_43" data-name="Group 43" transform="translate(19.503 18.2)">
      <g id="Group_42" data-name="Group 42">
        <path id="Path_57" data-name="Path 57" d="M361.3,336.005a1.3,1.3,0,1,0,1.3,1.3A1.3,1.3,0,0,0,361.3,336.005Zm0,1.733a.433.433,0,1,1,.433-.433A.433.433,0,0,1,361.3,337.738Z" transform="translate(-360.003 -336.005)" fill="#ff7f00"/>
      </g>
    </g>
  </g>
</svg>
