<svg xmlns="http://www.w3.org/2000/svg" width="26" height="19.067" viewBox="0 0 26 19.067">
  <g id="sofa" transform="translate(0 -64)">
    <g id="Group_29" data-name="Group 29" transform="translate(0 64)">
      <path id="Path_50" data-name="Path 50" d="M24.7,69.2h-.867V66.167A2.169,2.169,0,0,0,21.667,64H14.733A2.159,2.159,0,0,0,13,64.88,2.159,2.159,0,0,0,11.267,64H4.333a2.169,2.169,0,0,0-2.167,2.167V69.2H1.3A1.3,1.3,0,0,0,0,70.5v9.533a.433.433,0,0,0,.433.433H3.467V82.2a.433.433,0,0,0,.433.433H5.633a.433.433,0,0,0,.433-.433V80.467H19.933v2.167a.433.433,0,0,0,.433.433H22.1a.433.433,0,0,0,.433-.433V80.467h3.033A.433.433,0,0,0,26,80.033V70.5A1.3,1.3,0,0,0,24.7,69.2ZM13.433,66.167a1.3,1.3,0,0,1,1.3-1.3h6.933a1.3,1.3,0,0,1,1.3,1.3V69.2a1.3,1.3,0,0,0-1.3,1.3v2.167H13.433Zm-10.4,0a1.3,1.3,0,0,1,1.3-1.3h6.933a1.3,1.3,0,0,1,1.3,1.3v6.5H4.333V70.5a1.3,1.3,0,0,0-1.3-1.3ZM3.468,79.6H.867V70.5a.433.433,0,0,1,.433-.433H3.033a.433.433,0,0,1,.433.433v2.241c-.015.005-.028.013-.043.019s-.047.021-.071.032a1.316,1.316,0,0,0-.14.076c-.021.013-.043.026-.063.04a1.317,1.317,0,0,0-.145.12c-.01.009-.02.017-.029.026a1.33,1.33,0,0,0-.144.173c-.012.017-.022.036-.033.054a1.291,1.291,0,0,0-.08.147c-.011.024-.02.048-.03.072a1.283,1.283,0,0,0-.049.156c-.006.024-.013.047-.017.071a1.276,1.276,0,0,0-.023.24V75.7a1.271,1.271,0,0,0,.024.239c0,.024.011.047.017.071a1.362,1.362,0,0,0,.049.156c.01.024.019.048.03.072a1.291,1.291,0,0,0,.08.147c.011.018.021.037.033.054a1.326,1.326,0,0,0,.144.173c.009.009.02.017.029.026a1.317,1.317,0,0,0,.145.12c.02.014.043.027.063.04a1.359,1.359,0,0,0,.14.076c.023.011.046.022.07.031s.027.014.043.019Zm0-3.9V73.967a.433.433,0,0,1,.433-.433h8.667v2.6H3.9A.433.433,0,0,1,3.467,75.7ZM5.2,81.767H4.333v-1.3H5.2Zm16.467.433H20.8V80.467h.867Zm0-2.6H4.333V77H21.667Zm.433-3.467H13.433v-2.6H22.1a.433.433,0,0,1,.433.433V75.7A.433.433,0,0,1,22.1,76.133Zm.433,3.467V76.926c.015-.005.028-.013.043-.019s.047-.02.071-.032a1.316,1.316,0,0,0,.14-.076c.021-.013.043-.026.063-.04a1.316,1.316,0,0,0,.145-.12c.01-.009.02-.017.029-.026a1.326,1.326,0,0,0,.144-.173c.012-.017.022-.036.033-.054a1.3,1.3,0,0,0,.08-.147c.011-.024.02-.048.03-.072a1.21,1.21,0,0,0,.049-.156c.006-.024.013-.047.017-.071a1.276,1.276,0,0,0,.023-.24V73.967a1.272,1.272,0,0,0-.024-.239c0-.024-.011-.047-.017-.071a1.209,1.209,0,0,0-.049-.156c-.01-.025-.019-.049-.03-.073a1.334,1.334,0,0,0-.08-.146c-.011-.018-.021-.037-.033-.054a1.327,1.327,0,0,0-.144-.173c-.009-.009-.02-.017-.029-.026a1.316,1.316,0,0,0-.145-.12c-.02-.015-.043-.027-.063-.04a1.314,1.314,0,0,0-.14-.076c-.023-.011-.046-.022-.071-.032s-.027-.013-.043-.019V70.5a.433.433,0,0,1,.433-.433H24.7a.433.433,0,0,1,.433.433v9.1Z" transform="translate(0 -64)" fill="#ff7f00"/>
    </g>
  </g>
</svg>
