<svg xmlns="http://www.w3.org/2000/svg" width="26" height="20.367" viewBox="0 0 26 20.367">
  <g id="tv" transform="translate(0 -52)">
    <g id="Group_26" data-name="Group 26" transform="translate(0 52)">
      <path id="Path_37" data-name="Path 37" d="M24.7,52H1.3A1.3,1.3,0,0,0,0,53.3V68.467a1.3,1.3,0,0,0,1.3,1.3H6.5V71.5H4.767a.433.433,0,1,0,0,.867H22.1a.433.433,0,1,0,0-.867H19.5V69.767h5.2a1.3,1.3,0,0,0,1.3-1.3V53.3A1.3,1.3,0,0,0,24.7,52ZM18.633,71.5H7.367V69.767H18.633Zm6.5-3.033a.433.433,0,0,1-.433.433H1.3a.433.433,0,0,1-.433-.433v-.433H25.133Zm0-1.3H.867V54.6H25.133Zm0-13.433H.867V53.3a.433.433,0,0,1,.433-.433H24.7a.433.433,0,0,1,.433.433Z" transform="translate(0 -52)" fill="#ff7f00"/>
    </g>
  </g>
</svg>
